<svg id="avrora-1" xmlns="http://www.w3.org/2000/svg" width="192.756" height="192.756" viewBox="0 0 192.756 192.756">
  <path id="Контур_1" data-name="Контур 1" d="M0,0H192.756V192.756H0Z" fill="#fff" fill-rule="evenodd"/>
  <path id="Контур_2" data-name="Контур 2" d="M166.283,115.332l.092-.57.072-.584.053-.6.039-.607.021-.619.006-.627-.01-.635-.025-.643-.037-.646-.053-.648-.064-.65-.08-.65-.092-.648-.1-.646-.117-.641-.129-.635-.064-.285.115.064.742.436.723.449.7.457.674.467.648.473.619.48.588.482.555.486.52.486.484.486.445.48.4.477.361.469.32.457.273.445.227.426.184.408.137.383.1.357.055.33.018.3-.014.279-.047.262-.076.254-.113.252-.154.256-.189.246-.209.205-.271.236-.279.217-.289.2-.3.18-.307.164-.316.146-.322.131-.33.115-.336.1-.342.082-.348.07-.352.053-.354.039-.355.023-.357.012-.355,0-.354-.018-.352-.029-.348-.039-.34-.053-.336-.064-.326-.074-.316-.084-.3-.092-.223-.076.121-.334.156-.525.131-.541.111-.557Zm-27.861,2.639-.244.131-.232.145-.225.164-.072.061-.289-.182-.373-.156-.217-.08-.129-.057-.133-.066-.135-.076-.139-.088-.141-.1-.143-.111-.143-.123-.143-.135-.143-.146-.143-.16-.141-.17-.139-.184-.137-.193-.133-.207-.129-.219-.127-.23-.119-.242-.117-.252-.109-.266-.1-.275-.1-.287-.09-.3-.082-.309-.074-.318-.066-.33-.057-.342-.049-.352-.039-.361-.027-.371-.018-.381-.008-.406-.023-8.672.066.059.2.16.207.15.215.145.223.133.23.125.236.113.244.1.25.092.258.08.264.068.268.053.275.039.279.023.277.008.268-.006.26-.02.258-.031.254-.043.25-.057.246-.066.242-.078.234-.09.23-.1.225-.111.219-.121.211-.131.207-.141.2-.15.189-.16.182-.168.176-.176.164-.186.156-.193.148-.2.021-.029-1.1,9.135-.012.1-.018.135-.02.164-.025.193-.031.219-.033.244-.039.266-.043.285-.047.3-.053.316-.057.33-.061.338-.064.346-.068.352-.074.354-.076.352-.08.35-.084.346-.088.336-.09.324-.094.309-.094.293-.1.271-.094.246-.094.217-.088.182-.078.143-.057.09-.044.018Zm-.408,5.082,0,0,.219.121.225.105.23.09.236.076.24.061.246.047.25.033.254.02.217,0,.348,0,.34,0,.342,0,.34,0h.34l.338,0h.34l.336,0h.336l.336,0,.334,0h.33l.33,0,.328,0,.326,0h.324l.322,0h1.566l.3,0,.3,0,.3,0,.293,0,.287,0,.285.006.281.006.275.008.27.008.326.012.295-.006.271-.02.268-.031.262-.043.256-.061.25-.072.246-.088.242-.107.236-.125.229-.146.221-.172.211-.2.193-.223.174-.254.148-.279.115-.307.074-.324.031-.332-.014-.33.023.082.086.219.1.209.115.195.125.182.133.168.141.154.148.143.15.131.152.119.158.113.16.1.162.1.328.178,1.1.3.945.223.965.193.98.164.994.135,1,.109,1.012.08,1.018.055,1.02.029,1.021,0,1.018-.021,1.012-.047,1.006-.074.994-.1.98-.121.967-.145.947-.17.928-.193.9-.217.879-.242.85-.266.822-.291.789-.316.754-.346.719-.373.68-.4.639-.438.6-.477.545-.52.492-.564L183,118l.338-.646.365-.926.27-.9.182-.906.092-.9,0-.9-.086-.885-.172-.867-.252-.846-.33-.822-.4-.8-.465-.773-.527-.746-.586-.727-.639-.705-.691-.686-.74-.67-.789-.656-.834-.643-.879-.631-.922-.619-.965-.611-1-.6-1.045-.6-1.08-.59-1.117-.584-1.152-.578-1.186-.574-1.219-.57-1.248-.567-1.277-.564-1.3-.562-.545-.23-.119-.361-.186-.576-.184-.574-.182-.572-.176-.57-.174-.569-.172-.568-.168-.566-.166-.566-.162-.565-.158-.565-.156-.565-.152-.565-.15-.566-.148-.566-.145-.567-.141-.568-.139-.569-.137-.571-.135-.572-.129-.574-.129-.577-.125-.579-.123-.581-.119-.584-.117-.587-.115-.591-.113-.594-.109-.6-.107-.6-.1-.612-.018-.1-.018-.1-.016-.1-.018-.1-.018-.1-.016-.105-.016-.107-.014-.109-.012-.11-.01-.109-.01-.109-.006-.109,0-.107V76l0-.1,0-.1.008-.1.01-.091.012-.087.016-.082.018-.076.02-.069.02-.062.021-.057.023-.051.023-.045.025-.041.025-.036.025-.034.029-.033.033-.031.082-.069.133-.112.168-.157.156-.164.145-.17.135-.175.123-.18.113-.185.1-.191.092-.194.08-.2.068-.2.057-.208.047-.212.033-.217.018-.222,0-.228-.012-.233-.031-.237-.053-.241-.074-.245-.1-.245-.129-.241-.156-.233-.186-.222-.213-.2-.236-.179-.254-.152-.268-.123-.273-.092-.275-.063-.275-.036-.236-.01H145.968l-.439.1-.369.155-.334.217-.279.258-.221.278-.166.281-.119.274-.084.262-.023.108-.229-.2-.314-.237-.322-.214-.328-.191-.33-.169-.332-.149-.332-.13-.332-.113-.33-.1-.326-.082-.322-.069-.318-.058-.311-.046-.307-.038-.3-.029-.293-.022-.283-.016-.273-.011-.264-.007-.254,0-.242,0h-.644l-14.361-.048-.551.165-.377.167-.359.225-.332.287-.291.354-.227.415-.148.465-.051.492.051.493.148.465.229.415.289.353.332.288.359.225.377.167.168.05.029.014.055.03.047.033.043.037.045.044.047.056.049.07.053.087.053.106.055.126.053.146.053.165.047.185.047.2.039.221.037.236.031.251.027.266.021.279.02.291.014.3.012.313.01.322.006.331,0,.339,0,.347,0,.353,0,.359,0,.365,0,.369.006.375.008.374.094,3.98-.156-.8-.2-.924-.221-.936-.246-.944-.273-.948-.3-.947-.332-.943-.363-.934-.4-.921-.436-.9-.477-.883-.518-.857-.564-.826-.611-.791-.666-.748-.717-.7-.775-.646-.834-.583-.893-.511-.951-.433-1.006-.346-1.059-.252-1.107-.154-1.15-.052-.752.032-.74.1-.727.157-.713.217-.693.275-.676.329-.654.381-.631.431-.609.478-.588.523-.566.566-.543.608-.523.649-.5.688-.48.726-.459.764-.438.8-.416.836-.4.872-.375.906-.352.94-.332.974L96.5,81.342l-.286,1.039-.264,1.07-.24,1.1-.217,1.132L95.3,86.846l-.168,1.191-.049.418.029-7.4v-.4l0-.39,0-.384,0-.377,0-.37.008-.363.01-.355.013-.346.016-.336.019-.326.023-.315.027-.3.031-.291.035-.277.039-.263.043-.247.047-.23.051-.214.054-.195L95.6,74.9l.058-.156.059-.135.058-.114.054-.093.051-.073.044-.057.039-.041.033-.029.03-.021.03-.018.034-.016.084-.029.242-.072.376-.167.36-.225.332-.288.289-.352.23-.415.146-.465.053-.494-.053-.494L98,70.678l-.229-.414-.3-.364-.332-.287-.359-.225-.377-.167-.542-.163L81.936,69h-.207l-.223,0h-.233l-.247,0-.258.006-.268.01-.277.015-.287.02-.294.027-.3.034-.308.043-.313.052-.318.063-.323.075-.326.088-.329.1-.331.12-.332.136-.33.155-.329.175-.325.2-.318.218-.312.242-.3.265-.29.289-.276.312-.26.336-.242.359-.145.247-.009-.017-.255-.41-.278-.382-.3-.354-.315-.325-.329-.3-.341-.268-.349-.24-.355-.214-.359-.188-.361-.166-.36-.144-.358-.124-.355-.105-.35-.089-.345-.073-.337-.06-.329-.048-.321-.037-.311-.028-.3-.02-.287-.012-.274-.007-.258,0h-.242l-.224,0-.205,0L65.347,69l-.156,0-.127,0h-.1l-14.046.057-.566.175-.4.19-.367.248-.325.3-.273.35-.213.391v0l-.055-.173-.119-.273-.164-.281-.221-.279-.28-.256-.334-.217-.369-.155-.439-.1H35.475L35.24,69l-.275.036-.276.062-.274.092-.267.122-.254.152-.236.179-.213.2-.186.222L33.1,70.3l-.127.241-.1.245-.075.244-.052.241-.031.237-.013.233,0,.229.019.222.033.217.045.212.058.208.068.2.081.2.091.195.1.189.112.186.124.181.134.176.146.169.156.164.167.156.134.112.083.07.033.031.029.032.026.034.025.036L34.4,75l.023.045.023.051.022.057.021.062.019.069.018.075.015.081.012.087.01.091.007.1,0,.1,0,.1v.105l0,.107-.006.109-.008.109-.01.11-.013.11-.014.109-.015.108-.016.105L34.469,77l-.017.1-.018.1-.017.1L34.4,77.4l-.1.611-.107.6-.11.6-.113.594-.115.591-.117.587-.12.584-.123.582-.125.579-.128.576-.13.574-.134.572-.136.571-.138.568-.142.568-.145.567-.147.566-.15.566-.153.565-.156.565-.159.565-.162.565-.165.566-.168.567-.171.568-.174.569-.177.57-.181.572-.183.574-.187.576-.119.361-.545.229-1.305.562-1.277.564-1.248.567-1.217.57-1.186.574-1.152.578-1.117.584-1.082.59-1.043.6-1,.6-.964.611-.923.619-.879.631-.834.643-.789.656-.741.67-.691.686-.639.705-.585.727-.527.748-.466.771-.4.8-.329.822-.253.848-.172.867-.086.885,0,.9.092.9.181.906.27.9.365.926.338.646.427.617.491.564.546.52.6.475.639.439.68.4.718.373.755.344.789.318.821.291.851.266.879.242.9.217.927.191.948.17.966.145.981.121.994.1,1,.072,1.013.047,1.018.023,1.021,0,1.02-.027,1.018-.057,1.012-.08,1-.109.994-.135.98-.164.964-.193.947-.223,1.1-.3.327-.178.163-.1.16-.1.157-.109.154-.121.151-.131.146-.143.141-.154.134-.168.125-.182.115-.195.1-.207.078-.2-.007.213.037.336.079.32.117.3.146.273.171.246.189.221.205.195.216.17.226.15.234.131.242.111.249.1.254.078.261.062.267.049.273.035.28.02.3.008c9.013-.35,17.859.18,26.8.148a17.868,17.868,0,0,0,8.164-2.051l.666-.424.307-.229.077.512.183.5.28.461.369.4.441.318.492.23.522.135.465.037h.549l14.17-.012c1.819,0,3.317-.73,3.534-2.711.016-1.938-1.355-2.973-3.145-3.232l0,0-.033-.027c-1.871-2.266-1.072-11.1-1.183-14.086a41.881,41.881,0,0,0,3.567,13.4c2.9,5.252,6.7,8.029,12.713,7.68,4.648-.84,7.209-3.572,9.244-7.391a36.518,36.518,0,0,0,2.594-8.178c.164,1.715.305,8-1.385,8.652-2.963.674-3.957,5.717.172,5.881q7.192.009,14.387.023a3.492,3.492,0,0,0,1.494-.471l.128-.105Zm15.906-2.965-.055-.172-.127-.283-.152-.258-.174-.232-.191-.209-.2-.184-.213-.164-.221-.145-.229-.129-.236-.111-.242-.1-.127-.041v0L151.7,118l-.068-.1-.082-.141-.086-.174-.088-.207-.088-.23-.084-.256-.082-.275-.078-.293-.072-.307-.066-.316-.061-.326-.057-.332-.049-.334-.043-.336-.037-.336-.033-.33-.025-.324-.021-.314-.014-.305-.01-.291-.006-.273v-.254l.006-.232.008-.205.012-.174.012-.135.023-.164,1.41-13.115.574.34.615.424.594.469.566.508.541.549.51.584.477.617.443.646.41.674.371.7.332.719.291.734.248.748.205.758.16.766.111.77.066.77.018.766-.031.76-.082.752-.133.742-.184.727-.238.713-.291.695-.346.676-.4.656-.463.635-.527.613-.646.643-.121.123-.129.139-.125.141-.119.146-.115.15-.109.156-.1.164-.1.17-.09.178-.082.188-.072.2-.061.205-.045.217-.031.225-.014.232.006.236.018.155ZM143.125,86.2l-.275,2.007h-.324l-.555.021-.557.042-.182.021.275-.258.543-.557.52-.582.492-.607Zm-1.24,10.562-.02-.053-.1-.239-.115-.233-.123-.226-.135-.218-.146-.211-.154-.2-.164-.194L140.752,95l-.182-.179-.191-.169-.2-.159-.207-.15-.066-.044.041-.023.154-.073.156-.062.162-.052.166-.042.17-.032.174-.022.174-.013.176,0,.176.006.174.015.17.023.166.03.16.037.074.021-.317,2.654Zm11.338-11.3.09-.787.043-.348.01.051.137.711.145.714.146.714.148.71.15.705.148.695.15.682.146.667.143.647.137.625.133.6.049.226-.078-.037-.232-.108-.23-.108-.232-.107-.234-.107-.232-.105-.232-.1-.232-.1-.232-.1-.232-.1-.143-.059.012-.124.047-.545.053-.6.059-.64.062-.68.068-.712.074-.74.078-.762.081-.777Zm-68.2-8.8.044.195.04.2.036.21.033.217.028.222.024.227.021.23.017.234.012.236.009.237,0,.238v.245l-.013,6.593-.058-.05-.188-.174-.183-.184-.178-.195-.173-.207-.168-.217-.164-.23-.159-.244-.152-.256-.149-.272-.144-.288-.139-.3-.133-.319-.128-.336-.121-.354-.116-.372-.108-.389-.1-.408-.094-.426-.087-.445-.079-.465-.071-.48-.057-.467-.038-.43-.022-.4-.007-.364.007-.332.02-.3.029-.268.039-.237.046-.207.051-.179.053-.151.055-.127.055-.1.053-.085.052-.07.049-.058.05-.048.05-.043.054-.038.059-.036.064-.033.073-.032.083-.029.091-.027.1-.023.11-.02.119-.016.127-.012.134-.007.141,0h.145l.116,0,.047,0h.01l.006,0,.012.008.02.015.028.026.037.038.043.052.049.068.053.083.055.1.057.113.057.128.057.141.055.154.053.166.05.176.046.188ZM73.985,83.512l.052.126.347.721.382.7.414.672.445.647L76.1,87l.5.6.527.572.337.335-1.035-.149-1.133-.1L74.162,88.2h-1.13l-1.117.045-1.1.085-.641.072.109-.09.6-.545.571-.571L72,86.6l.5-.621.463-.645.424-.669.382-.693.22-.459Zm11.057,19.543-.021,7.938-.009.391-.023.365-.037.359-.05.352-.062.346-.075.338-.086.33-.1.322-.107.314-.117.3-.126.3L84.1,115l-.143.275-.149.266-.156.254-.162.242-.166.23-.17.219-.173.205-.175.193-.176.178-.177.164-.176.15-.173.137-.17.119-.165.107-.158.09-.151.076-.141.061-.13.047-.029.008.1-.166.375-.707.325-.74.275-.771.225-.805.174-.832.124-.861.074-.889.023-.916-.026-.941-.076-.969-.125-1-.179-1.045-.211-.881-.288-.871-.352-.842-.261-.516.2,0,.274-.01.271-.021.269-.037.266-.047.262-.061.258-.072.254-.084.25-.094.245-.105.242-.115.236-.127.23-.137.225-.146.22-.156,0,0ZM110.076,76.03l.156.274.152.292.152.309.148.326.145.343.141.36.137.378.131.4.127.417.1.361.1.372.1.378.092.383.09.389.086.394.08.4.08.4.074.407.07.413.068.417.064.42.062.424.057.428.055.431.053.435.049.437.045.44.043.443.039.445.037.448.033.45.031.452.027.453.025.456.023.457.02.458.02.459,0,.123-.256.02-.289.02-.293.019-.295.017-.3.016-.3.015-.3.012-.305.011-.309.009-.311.007-.316.006-.316,0-.32,0h-.648l-.328,0-.33-.006-.336-.008-.338-.01-.34-.012-.3-.013,0-.045.02-.38.018-.382.02-.384.018-.385.02-.387.018-.389.02-.391.018-.392.02-.394.018-.4.02-.4.018-.4.018-.4.018-.4.016-.4.018-.407.016-.408.016-.41.016-.412.014-.414.016-.416.012-.418.014-.42.012-.422.012-.424.01-.426.01-.429,0-.192,0-.207,0-.22,0-.232.006-.243.008-.254.008-.263.014-.271.014-.277.02-.282.023-.285.025-.286.031-.286.037-.284.041-.281.047-.276.053-.268.059-.259.062-.247.068-.234.072-.219.076-.2.078-.182.082-.161.078-.138.076-.114.07-.09.064-.068.053-.048.008,0,.02.007.072.034.088.046.1.062.111.076.119.092.131.108.135.124.143.14.145.157.15.174.152.19.156.207.154.224.158.242.145.251Zm1.1,42.7c-5.305-3.236-5.1-15.07-4.949-21.508,2.266.082,4.531.047,6.793-.09-.1,4.164-.4,8.324-.758,12.473-.141,1.605-.035,9.648-1.086,9.125ZM62.507,97.037l.019.027.591.844.644.9.686.955.718,1,.739,1.045.751,1.078.75,1.1.739,1.119.717,1.129.683,1.131.639,1.119.583,1.1.516,1.074.437,1.031.35.977.254.91.151.822.051.719-.042.6-.12.486-.186.393-.267.344-.394.326-.579.314-.807.277-1.051.209-.138.01-.156,0-.178-.021-.2-.045-.221-.07-.24-.1-.256-.125-.268-.152-.278-.182-.286-.211-.291-.238-.292-.262-.292-.289-.291-.311-.287-.336-.281-.354-.273-.373-.265-.393-.254-.408-.243-.424-.229-.436-.215-.449-.2-.459-.182-.467-.164-.473-.145-.48-.125-.484-.1-.488-.083-.488-.06-.49-.037-.486-.014-.51-.025-11.047ZM48.8,72.909l.023.058.261.409.333.353.386.284.421.21.289.091.122.042.066.028.057.03.05.032.047.036.047.041.048.05.051.061.053.073.055.087.057.1.057.12.057.137.056.154.054.171.052.188.048.2.045.22.042.235.037.25.034.264.03.277.025.29.022.3.019.314.014.326.012.336.009.348.006.357,0,.367v.764l-.036,8.058-.083.02-.122.027-.126.028-.134.03-.14.032L51,88.75l-.154.035-.163.037-.171.04-.181.042-.191.045-.2.048-.048.011L48.567,78.365l-.049-.4-.043-.374-.038-.353-.032-.332-.028-.312-.023-.293-.019-.273-.015-.255-.011-.236-.007-.22,0-.2v-.187l0-.17.006-.155.008-.141.01-.127.012-.113.013-.1.015-.091.015-.08.016-.071.016-.064.016-.059.018-.055.018-.053.02-.053.022-.055.024-.058.029-.063.033-.069.037-.076.171-.35v-.014ZM38.854,119.85l.006-.223-.013-.23-.03-.227-.047-.215-.06-.207-.072-.2-.082-.188-.09-.178-.1-.17-.1-.164-.109-.156-.115-.15-.12-.146-.125-.141-.129-.139-.122-.123-.648-.645-.527-.611-.464-.631-.4-.65-.346-.668-.29-.684-.236-.7-.184-.711-.132-.723-.081-.734-.032-.74.018-.746.065-.746.112-.748.159-.742.2-.736.247-.727.29-.713.331-.7.369-.678.407-.654.442-.631.477-.6.509-.57.539-.535.568-.5.593-.459.618-.416.592-.346,1.4,12.707.022.162.013.137.012.18.009.213,0,.242v.266l-.005.285-.01.305-.015.32-.021.33-.026.338-.032.348-.038.35-.044.35-.049.35-.056.346-.062.338-.067.328-.073.316-.077.3-.082.279-.084.256-.086.23-.086.2-.081.164-.072.123-.023.033-.005,0-.264.066-.259.086-.254.105-.248.129-.242.152-.232.18-.219.211-.2.24-.175.271-.143.3-.02.057ZM76.065,98.025l-.089-.08-.655-.549-.653-.527-.646-.508-.634-.485-.618-.464-.6-.442-.569-.421-.537-.4-.5-.375-.455-.35-.184-.146.332-.062.483-.075.511-.063.533-.05.55-.035.562-.019h.567l.567.019.562.039.552.061.535.083.514.1.485.127.453.148.415.168.372.186.327.2.28.213.209.2-.207.115-.219.136-.211.146-.2.157-.194.165-.187.174-.178.183-.168.189-.159.2-.149.207-.139.213-.129.219-.119.227-.108.234-.1.238-.085.244-.073.25-.05.206Zm60.4-21.546.074.179.072.2.062.224.057.25.045.275.033.3.02.332,0,.361-.012.392-.033.426-.047.444-.061.434-.072.418-.082.4-.094.388-.1.375-.111.36-.121.346-.129.333-.139.32-.146.307-.154.294-.162.283-.17.272-.176.26-.186.25-.191.24-.2.23-.207.221-.213.211-.219.2-.227.194-.125.1,0-7.034,0-.244.006-.237.01-.235.012-.234.016-.23.021-.226.023-.223.027-.218.031-.212.033-.206.039-.2.041-.191.043-.183.047-.172.049-.162.051-.151.053-.14.053-.126.053-.112.051-.1.049-.084.045-.068.039-.053.033-.038.016-.016h.016l.094,0h.1l.107.006.111.011.117.017.117.022.117.028.115.035.115.041.113.047.111.053.1.06.1.066.1.074.1.082.094.09.092.1.09.112.086.126.084.142.08.157ZM51.252,95.138l.129-.044.124-.042.12-.041.114-.039.037-.012.129,9.917L50.732,95.31l.086-.028.152-.051.144-.048Zm-24.937,13.95-.052.648-.039.646-.024.641-.009.635,0,.629.021.619.038.607.054.6.072.584.091.572.111.555.132.541.156.525.12.336-.222.076-.306.092-.316.084-.326.074-.334.062-.341.053-.347.041-.351.029-.354.016-.356,0-.356-.012-.356-.025-.354-.039-.351-.053-.347-.068-.342-.084-.337-.1-.33-.113-.322-.131-.314-.146-.308-.164-.3-.182-.289-.2-.28-.217-.271-.234-.208-.205-.189-.246-.155-.258-.112-.252-.077-.252-.045-.262-.015-.281.019-.3.054-.33.095-.357.137-.383.183-.406.228-.428.273-.443.318-.459.362-.467.4-.477.445-.482.484-.486.52-.486.555-.484.588-.484.619-.479.647-.475.675-.467.7-.457.722-.447.743-.438.116-.064-.064.285-.129.635-.117.643-.1.645-.092.65-.079.65-.068.65ZM65.14,81.981l-.08.341-.091.326-.1.311-.111.3-.121.283-.13.27-.138.257-.148.245-.157.233-.166.223-.175.212-.184.2-.194.194-.2.185-.214.177-.225.168-.194.133L62.5,78.854V78.6l0-.255,0-.251,0-.246.006-.24.008-.236.009-.229.012-.223.014-.214.017-.207.019-.2.021-.188.024-.177.026-.166.029-.154.03-.14.031-.126.033-.111.031-.1.022-.057.087,0h.115l.114,0,.112.01.11.015.106.019.1.024.1.028.1.034.092.039.089.043.087.049.085.057.084.064.084.074.085.085.086.1.087.114.088.132.088.153.087.175.086.2.082.226.078.253.072.282.064.312.056.343.045.375.034.408.021.441.007.454-.007.438-.021.422-.033.406-.045.389-.058.373-.065.359ZM38.665,87.868l.15-.7.149-.711.146-.714.143-.714.128-.661.061.516.09.807.085.8.079.78.074.757.068.729.063.693.058.653.053.607.048.555.009.1-.044.015-.225.08-.226.082-.228.083-.229.084-.229.085-.231.087-.231.086-.23.088-.231.088-.229.088-.025.01.1-.447.131-.6.138-.625.143-.647.146-.666.149-.683.149-.7Z" fill-rule="evenodd"/>
  <path id="Контур_3" data-name="Контур 3" d="M175.48,117.092c-3.557,3.693-9.531,2.887-12.266,1,2.389-2.77,1.67-11.8-.529-16.713,9.182,3.941,16.725,11.172,12.795,15.713ZM140.35,98.541a3.3,3.3,0,0,1-3.355,3.271,3.843,3.843,0,0,1-3.633-3.531c-.236-6.5,6.172-8.756,11.1-8.1l1.58-11.519c.611-4.462.193-5.261-.283-6.226-.141-.882,0-1.455.424-1.517h11.061c1.271,0,1.207,1.638.139,2.481-1.492,1.177-1.025,3.43-.863,4.382A121.575,121.575,0,0,0,161.3,96.492c14.191,5.916,23.951,11.922,20.35,20.076-2.188,4.955-15.928,6.979-24.945,4.328q-1.786-.932-.17-2.521c7.8-7.178,2.9-20.557-6.094-23.138L148.764,110.8c-.277,1.7.166,8.34,2.322,9,1.678.516,1.387,1.994-.764,2-2.91-.113-6.57-.012-10.158-.053-1.693.012-2.48-1.439-.754-2.18,1.672-.717,2.564-7.865,2.676-8.795L144.2,93.082a4.754,4.754,0,0,0-7.375,2.191,3.357,3.357,0,0,1,3.522,3.268Zm14.123-23.677c-2.459-1.519-3.482,14.882-3.779,17.429,1.988.607,4.9,2.236,6.8,2.936-.178-2.227-3.408-14.1-3.1-18.085.042-.57.351-2.11.074-2.28ZM84.406,73.345c-2.071-.1-4.645.548-3.871,6.246s3.152,8.34,6.6,9.485l.019-9.713c0-2.839-.679-5.916-2.749-6.018Zm24.555-3.4c-6.326,0-11.525,8.64-12.331,21.936q-1.724-.333-3.432-.738l.039-10.107c.015-4.243.036-8.006,2.349-8.7.977-.231.977-1.177,0-1.409l-13.659-.055c-2.132-.009-5.913-.05-7.144,3.71-1.5,9.251,4.833,14.986,12.152,17.325l-.052,19.115c-.014,4.8-3.1,8.445-5.6,8.885-1.467.258-1.294,1.871,0,1.875l15.116-.012c1.621,0,1.656-2.08-.225-2.217-2.931-.209-2.909-6.885-2.916-8.516L93.2,93.42q1.653.469,3.337.812c-.1,4.634-.015,28.628,13.5,28.628,12.324,0,12.641-22.6,12.35-28.885q1.345-.295,2.674-.66l.023,17.815c0,1.627.07,7.879-2.814,8.416-1.424.266-1.8,2.205-.229,2.205,5.039.006,9.223.016,14.262.023,1.123-.008,1.1-1.539,0-1.91-2.406-.807-4.631-4.049-4.645-8.85l-.053-19.4c7.32-2.339,13.977-7.789,12.48-17.04-1.23-3.76-5.01-3.6-7.143-3.608l-14.086-.047c-.977.231-.977,1.177,0,1.409,2.434.966,2.039,4.805,2.131,8.7l.232,9.705c-.932.236-1.932.492-3.008.746-.58-6.19-2.486-21.541-13.248-21.541Zm-3.928,10.282c.041-1.88-.031-7.227,2.529-8.154,1.406-.508,4.146,1.562,5.592,6.532A55.952,55.952,0,0,1,114.9,92.788a55.434,55.434,0,0,1-10.385.161C104.689,88.965,104.938,84.753,105.033,80.223Zm9.877,14.894c-.037,6.434-.617,12.637-.977,16.7-.209,2.365.543,7.646-1.9,8.721-2.627,1.156-5.793-5.145-6.1-6.27-1.654-5.992-1.76-12.172-1.512-19a67.968,67.968,0,0,0,10.491-.15Zm-37.1,4.016a3.534,3.534,0,0,0,3.541,3.27c1.879.092,4.032-1.451,4.006-3.529C85.186,85.6,63.219,90.64,62.427,92.911c-.734,2.1,21.7,24.942,6.912,27.018-3.644.512-8.659-5.656-8.671-11.818l-.038-17.1c8.813-2.1,14.983-8.7,11.7-16.834-1.544-3.827-6.121-3.3-7.353-3.3L51.2,70.93c-.979.229-1.083,1.383-.107,1.614,2.313.695,2.577,3.74,2.557,7.986l-.043,9.509c-1.429.391-1.892.421-5.307,1.279L46.718,78.594c-.558-4.469-.195-5.263.281-6.226.141-.88,0-1.455-.421-1.515H35.515c-1.273,0-1.207,1.638-.139,2.48,1.493,1.175,1.025,3.429.863,4.382a121.572,121.572,0,0,1-4.775,18.713c-14.191,5.915-23.954,11.921-20.352,20.077,2.189,4.953,15.928,6.977,24.945,4.326q1.785-.929.17-2.52c-7.8-7.18-2.9-20.131,6.094-22.712l1.673,15.136c.278,1.7-.168,8.764-2.323,9.1-1.735.277-1.385,1.891.763,1.895a237.594,237.594,0,0,1,24.073.062c9.949.816,16.089-3.8,14.113-14.045-1.55-8.037-14.565-13.3-13.578-15.321.662-1.29,13.5-3.3,14.224,3.372a3.35,3.35,0,0,0-3.459,3.33Zm56.224-25.768c1.756-.192,5.133.779,4.617,6.226s-3.344,8.466-7.049,9.862l0-10.188c0-2.838.678-5.705,2.436-5.9ZM53.609,92.549A46.763,46.763,0,0,0,48.694,94l2.049,16.706c.219,1.785,2.68,9.975,4.149,9.152.951-.531-.961-2.707-1.048-9.33l-.235-17.978ZM17.277,117.025c3.555,3.691,9.53,2.887,12.266,1-2.39-2.77-1.67-11.8.529-16.715-9.183,3.944-16.724,11.172-12.8,15.715ZM62.4,73.246c1.731-.178,4.665.3,4.833,5.839s-2.354,8.634-6.58,9.779l-.015-10.007c-.005-2.84.14-5.445,1.762-5.611ZM38.283,74.8c2.459-1.517,3.484,15.312,3.782,17.857-1.989.606-4.9,1.809-6.805,2.509.177-2.23,3.409-14.1,3.1-18.087-.046-.567-.353-2.108-.076-2.279Z" fill="#fff" fill-rule="evenodd"/>
</svg>
