<svg width="24" height="24" viewBox="0 0 24 24" fill="none" xmlns="http://www.w3.org/2000/svg">
<path fill-rule="evenodd" clip-rule="evenodd" d="M9.3668 7.29079C9.36644 7.67709 9.05317 7.99013 8.66679 7.99013C8.28019 7.99012 7.96679 7.67672 7.9668 7.29012L8.6668 7.29013C7.9668 7.29012 7.9668 7.29049 7.9668 7.29012L7.9668 7.28858L7.9668 7.28673L7.96683 7.2821L7.96699 7.26924C7.96716 7.25909 7.96746 7.24578 7.96801 7.22954C7.96911 7.19708 7.97119 7.15275 7.97514 7.09822C7.98301 6.98939 7.99841 6.83858 8.02866 6.65946C8.08859 6.30452 8.20976 5.82075 8.45903 5.32865C8.70979 4.83362 9.09644 4.31863 9.68828 3.92917C10.284 3.53712 11.0462 3.2998 12.0002 3.2998C12.9541 3.2998 13.7163 3.53712 14.312 3.92917C14.9039 4.31864 15.2905 4.83362 15.5413 5.32865C15.7905 5.82075 15.9117 6.30452 15.9716 6.65947C16.0019 6.83858 16.0173 6.9894 16.0251 7.09822C16.0291 7.15275 16.0312 7.19708 16.0323 7.22955C16.0328 7.24579 16.0331 7.25909 16.0333 7.26925L16.0335 7.28211L16.0335 7.28673L16.0335 7.28858C16.0335 7.28895 16.0335 7.29012 15.3335 7.29013L16.0335 7.29012C16.0335 7.67672 15.7201 7.99012 15.3335 7.99013C14.9479 7.99013 14.6351 7.67834 14.6335 7.29311C14.6335 7.29256 14.6335 7.29202 14.6335 7.29148C14.6335 7.29142 14.6335 7.29154 14.6335 7.29148C14.6335 7.29202 14.6335 7.29256 14.6335 7.29311C14.6335 7.29331 14.6335 7.29349 14.6335 7.29311C14.6335 7.29256 14.6335 7.29202 14.6335 7.29148L14.6331 7.27681C14.6325 7.26107 14.6314 7.23471 14.6288 7.19927C14.6237 7.12815 14.613 7.02192 14.5912 6.89256C14.5469 6.63057 14.4598 6.29176 14.2924 5.96128C14.1264 5.63373 13.8881 5.32613 13.5424 5.09866C13.2007 4.87378 12.7128 4.6998 12.0002 4.6998C11.2875 4.6998 10.7996 4.87378 10.4579 5.09866C10.1122 5.32614 9.87386 5.63373 9.70794 5.96128C9.54054 6.29176 9.45336 6.63058 9.40912 6.89257C9.38727 7.02192 9.37663 7.12816 9.37148 7.19928C9.36892 7.23472 9.36774 7.26107 9.36721 7.27681L9.36681 7.29214L9.3668 7.29079Z" fill="#F0F4F8"/>
<path fill-rule="evenodd" clip-rule="evenodd" d="M20.6251 15.2481C21.0852 18.2742 18.7428 20.9998 15.6819 20.9998L11.9997 20.9998L8.31746 20.9998C5.25655 20.9998 2.91413 18.2742 3.37428 15.2481L3.76439 12.6826L4.14306 10.7704C4.60674 8.42892 6.66084 6.7417 9.04781 6.7417L11.9997 6.7417L14.9516 6.7417C17.3385 6.7417 19.3926 8.42891 19.8563 10.7704L20.235 12.6826L20.6251 15.2481ZM10.3904 12.8141C10.1152 13.0857 9.66916 13.0857 9.39402 12.8141L9.27927 12.7008C9.00413 12.4292 9.00413 11.9889 9.27927 11.7173C9.55441 11.4457 10.0005 11.4457 10.2756 11.7173L10.3904 11.8306C10.6655 12.1022 10.6655 12.5425 10.3904 12.8141ZM14.6053 11.8306C14.3302 11.559 13.8841 11.559 13.609 11.8306C13.3339 12.1022 13.3339 12.5425 13.609 12.8141L13.7237 12.9274C13.9989 13.199 14.445 13.199 14.7201 12.9274C14.9952 12.6558 14.9952 12.2155 14.7201 11.9439L14.6053 11.8306Z" fill="#F0F4F8"/>
</svg>
