<svg width="31" height="26" viewBox="0 0 31 26" fill="none" xmlns="http://www.w3.org/2000/svg">
<path d="M6.25 4H24.1C26.3498 4 27.4748 4 28.2634 4.57295C28.518 4.75799 28.742 4.98196 28.9271 5.23664C29.5 6.02524 29.5 7.15016 29.5 9.4V15.1C29.5 17.3498 29.5 18.4748 28.9271 19.2634C28.742 19.518 28.518 19.742 28.2634 19.9271C27.4748 20.5 26.3498 20.5 24.1 20.5H13.0874C11.0809 20.5 10.0776 20.5 9.33028 20.0122C9.08772 19.8538 8.86938 19.6612 8.68204 19.4403C8.10481 18.7596 7.97972 17.7642 7.72953 15.7733L6.25 4Z" stroke="#F0F4F8" stroke-width="1.4"/>
<path d="M1 0.3C0.613401 0.3 0.3 0.613401 0.3 1C0.3 1.3866 0.613401 1.7 1 1.7V0.3ZM7.60024 4.38985L5.64155 1.12536L4.44106 1.84565L6.39976 5.11015L7.60024 4.38985ZM4.18381 0.3H1V1.7H4.18381V0.3ZM5.64155 1.12536C5.33432 0.613308 4.78096 0.3 4.18381 0.3V1.7C4.28919 1.7 4.38684 1.75529 4.44106 1.84565L5.64155 1.12536Z" fill="#F0F4F8"/>
<circle cx="24.25" cy="24.25" r="1.5" fill="#F0F4F8"/>
<circle cx="13.75" cy="24.25" r="1.5" fill="#F0F4F8"/>
<line x1="24.3" y1="10.7" x2="19.7" y2="10.7" stroke="#F0F4F8" stroke-width="1.4" stroke-linecap="round" stroke-linejoin="round"/>
</svg>
