<svg xmlns="http://www.w3.org/2000/svg" width="1022.738" height="383.098" viewBox="0 0 1022.738 383.098">
  <path id="fender-3" d="M795.98,0c-6.138-.04-12.673,1.683-16.61,4.307-10.115,6.75-47.27,122.32-62.756,181.706,0,0-3.355,12.362-7.794,40.812-.714,4.619-3.076,22.707-4.1,28.3-3.855,20.959-18.843,32.206-31.788,29.736-16.17-3.084-18.482-27.062-14.15-44.913,4.74-19.565,20.836-41.657,39.376-36.3,8.934,2.083,13.552,1.033,14.15-4.922.764-7.7-8.408-12.306-8.408-12.306-35.554-17.892-67.317,11.378-75.472,52.707-9.523,48.228,20.279,86.57,68.7,59.064,15.16-8.605,14.34,11.493,48.4,10.254,24.766-2.411,38.9-20.7,26.046-30.763-8.41-6.588-14.077,6.316-28.1,4.512C713.528,278.349,747.055,191.4,764.4,137.2c14.8-46.226,31.27-79.425,45.324-116.9C815.373,5.234,806.213.064,795.98,0ZM254.967,9.844c-51.4,1.363-146.82,50.425-218.825,107.26C6.617,142.772-10.39,148.868,8.865,169.4c17.112,17.112,28.1,4.1,28.1,4.1,16.259-12.838,51.345-48.72,74.445-65.833,32.9-24.372,78.318-59.5,118.54-68.91,31.91-8.087,41.607,1.322,37.325,33.84-2.52,27.908-23.995,90.647-23.995,90.647s-33.027,14.79-42.863,18.458c-7.687,2.854-15.726.91-16.611,18.458-.394,18.818,11.025,11.73,18.663,8.818,5.906-2.256,19.835-8.926,25.02-11.075,3.848-2.994,8.089-.435,5.948,5.128-3.848,12.41-10.83,32.625-23.995,61.73-16.686,39.8-46.6,94.175-50.451,107.875.427,8.982,10.213,10.27,23.175,10.459a23.742,23.742,0,0,0,17.432-9.23s15.529-33.395,39.377-92.083c17.317-42.625,28.662-77.834,33.429-93.724,2.567-9.41,8.105-11.411,15.382-13.125,10.877-3.568,26.144-8.36,35.479-10.05,23.593-5.823,30.377-4.568,33.429-20.917,2.124-11.37-2.871-16.612-2.871-16.612s-51.411,16.029-61.73,18.868c-8.983,3.847-7.384-5.538-7.384-5.538s-1.255,5.93,4.308-18.458c16.865-74.191,7.046-93.937-6.358-105.208-6.364-5.258-15.827-7.49-27.69-7.176ZM952.05,141.509c-8.823-.383-28.97,14.592-21.124,52.707-10.7,40.214-92.3,110.394-103.156,82.034-2.65-6.907,4.495-18.261,23.174-22.15,30.8-6.422,28.229-25.577,13.536-27.48-23.1-2.994-29.475-2.986-57.014-9.434-10.861-1.148-10.542-15.586,2.256-15.381,5.29-.214,18.5,1.607,46.76,2.666,29.573,1.107,35.43-21.9,34.249-36.1-30.181,6.514-37.334,8.2-63.371,8.2-27.317,0-61.116,7.547-61.731,31.583-.615,23.88,30.73,29.27,46.965,33.839,4.495,1.075,6.07,4.823,3.076,7.178-6.94,5.538-22.543,12.78-24.405,25.84-2.642,18.49,14.15,33.06,35.48,32.609,28.4-.591,59.893-12.642,90.032-48.81,8.515-10.214,18.1-27.466,23.995-35.07,1.41-2.74,5.38-4.1,7.178-3.9,5.38,1.189,13.125,5.226,12.1,11.074-1.566,8.95-26.07,36.932-9.844,53.732,9.967,10.32,35.176,17.62,55.168,3.076,18.712-13.61,12.133-25.963,4.717-26.865-5.3-.641-20.213,17.98-32.2,4.717-9.951-11.018,13.757-33.717,18.458-41.838,6.784-11.715-19.64-20.73-30.764-35.274-7.178-9.565,11.428-38.777-11.9-46.554a6.091,6.091,0,0,0-1.641-.411Zm54.143,14.767a17.154,17.154,0,1,0,12.1,4.922,16.5,16.5,0,0,0-12.1-4.922Zm0,2.256a14.707,14.707,0,1,1-10.459,4.307,14.226,14.226,0,0,1,10.459-4.307Zm-6.973,5.332v18.663h3.28v-7.178h2.667c1.8,0,2.978.008,3.69.41,1.215.7,1.847,2.14,1.847,4.307v1.64l.205.616c.017.082-.017.139,0,.205h3.076l-.205-.205c-.073-.156.024-.32,0-.821s-.205-1.01-.205-1.436v-1.436a5.062,5.062,0,0,0-1.025-2.871,4.28,4.28,0,0,0-3.076-1.846,7.042,7.042,0,0,0,2.666-.82,4.466,4.466,0,0,0,1.846-3.9c0-2.362-.92-3.9-2.871-4.717a15.921,15.921,0,0,0-5.332-.615H999.22Zm3.282,2.255h2.87a8.836,8.836,0,0,1,4.1.82,3.3,3.3,0,0,1-.616,5.538,9.785,9.785,0,0,1-3.281.41H1002.5Zm-562.55,5.538c-25.1,7.48-37.817,6.562-64.4,6.562-27.892,0-65.594,3.889-63.986,30.763,1.354,22.6,33.19,28.908,49.63,30.763,4.71-.435,6.088,4,2.667,6.357-7.416,7.515-15.882,17.843-17.022,26.25-2.485,18.2,6.834,34.242,29.943,33.84,24.814-.427,32.944-18.441,74.445-43.683,11.583-7.047,26.062-18.941,31.993-19.894,2.28,0,5.546.747,5.332,5.127-3.511,16.562-7.35,27.72-3.076,41.837,3.02,9.943,16.153,16.2,25.636,9.024,15.824-11.978,15.98-18.95,36.506-45.94,3.4-4.461,15.979-24.871,21.738-22.148,4.783,2.256,3.348,8.926,2.46,14.15-4.313,25.268-15.273,65.227,34.66,59.065,11.87-1.46,21.534-9.55,12.51-18.048-5.454-5.143-11.606-1.492-18.457-3.076-16.021-3.691,23.626-76.686,4.718-90.237-26.588-19.048-51.24,14.717-69.73,39.376-7.292,9.722-12.7,5.48-17.432-8.2-5.274-15.226-36.81-4.036-54.962,5.332-28.958,14.939-82.584,64.922-87.572,39.992-.861-4.307,6.26-13.93,19.278-18.663,15.267-5.554,32.4-10.51,32.4-19.688,0-7.1-4.241-12.148-8.818-11.9-21.3,1.182-46.1,6.768-74.446-1.025-6.464-.05-9.294-16.268,9.845-14.15,5.069.565,16.39,1.4,59.27,2.256,30.2.607,30.916-22.034,26.864-34.044Z" transform="translate(-0.682 0.001)"/>
</svg>
