<svg id="harrods" xmlns="http://www.w3.org/2000/svg" width="192.756" height="192.756" viewBox="0 0 192.756 192.756">
  <path id="Контур_4" data-name="Контур 4" d="M0,0H192.756V192.756H0Z" fill="#fff" fill-rule="evenodd"/>
  <path id="Контур_5" data-name="Контур 5" d="M36.786,55.186h.1l.1.026.078.026.079.078.078.079.052.1.078.131.026.131.052.183.026.157.026.208.026.235.026.235v.835l.339,38.78,9.793-.6L47.882,59l1.41-3.812,4.387-.392L54.7,56.6l.183,38.6,6.607-.392,10-.392,4.6.392,1.2.992V97.2l-.81,1.385-3.186,1.8-.209.236-.5.574-.731.836-.862,1.043-.914,1.072-.835,1.043-.392.5-.313.418-.261.393-.209.287-.13.312-.183.34-.183.418-.208.471-.392.967-.391,1.018-.34.939-.287.811-.208.521-.053.209-.026.053v.131l-.052.156-.026.209v.521l.026.105.026.078.052.053.053.025.052.027h.078l.1-.053.1-.053.131-.1.13-.131.183-.184.183-.209.209-.234.235-.314.261-.338.261-.393.313-.471.34-.5.366-.574.705-1.148.627-1.07.575-.941.522-.887.444-.783.392-.705.339-.627.287-.549.235-.471.209-.391.157-.314.105-.26.1-.209.052-.131.026-.078v-.053l.183-.131.5-.314.313-.182.366-.209.183-.078.183-.105.209-.1.208-.078.209-.053.183-.078.209-.025.183-.053h.366l.183.025.157.053.157.078.156.078.105.131.1.131.1.182.079.209.052.262.026.262.052.627.052.6.078.627.079.627.1.627.105.6.1.576.105.521.183.967.183.756.1.5.052.184v.078l.053.236.078.338.131.418.052.236.078.234.079.234.079.236.1.234.1.209.131.209.1.184.131.182.13.131.131.1.157.08.156.025h.157l.156-.053.183-.1.183-.158.183-.234.183-.287.209-.34.183-.418.235-.521.209-.574.235-.68.417-1.357.392-1.229.366-1.123.313-.992.287-.887.288-.783.208-.68.209-.6.183-.494.13-.418.131-.34.1-.262.078-.209.026-.131.026-.078h.026l-.6-2.4-3.212-4.6V92.37l.026-.235.026-.34.052-.183.026-.183.052-.209.052-.209.079-.235.078-.208.1-.235.131-.209.1-.209.157-.235.156-.209.183-.183.209-.209.235-.157.261-.157.287-.13.288-.13.313-.1.366-.079.392-.026.392-.026h.444l.5.052.5.079.5.1.47.1.392.156.366.157.313.157.261.183.235.183.209.209.156.209.131.235.1.209.1.235.026.235.052.235v.444l-.052.235-.026.235-.052.209-.079.209-.052.209-.078.183-.079.183L90.5,93.1l-.157.287-.13.209-.1.131-.026.078v.079l.052.235.026.183.053.183.1.235.1.261.078.131.078.13.079.131.1.13.105.13.13.157.131.131.13.156.157.131.183.156.157.131.209.156.209.131.208.131.261.131.235.156,1.071.521,1.044.549.5.287.5.287.444.262.444.287.182.156.184.131.182.131.158.156.129.131.158.131.1.131.105.156.1.131.078.131.053.156.025.131.027.131v.131l-.027.129-.051.131-.053.156-.053.184-.053.209-.025.262-.053.262-.025.312-.025.312-.027.34-.053.732-.025.756-.025.811v.783l-.027.783v1.463l.027.6v.914l.025.236v.129l.053.105.053.156.1.184.053.1.053.078.078.105.078.1.078.078.078.105.078.053.105.051.1.053.105.027.1.025.131-.025.131-.027.1-.078.131-.078.131-.131.156-.156.131-.184.156-.234.156-.262.158-.312.156-.34.156-.393.184-.443.312-.914.314-.889.287-.809.26-.783.262-.732.234-.678.209-.627.184-.549.156-.5.156-.443.131-.393.105-.312.078-.262.053-.182.025-.105.025-.025.027-.131.051-.314.027-.234.025-.262.027-.287v-.34l-.027-.156-.025-.182-.027-.184-.025-.182-.053-.184-.025-.184-.078-.209-.078-.182-.078-.209-.105-.209-.078-.184-.131-.209-.156-.182-.131-.184-.156-.209-.184-.183-.182-.209-.184-.208-.156-.236-.131-.235-.156-.261-.105-.261-.131-.287-.1-.288-.105-.287-.078-.287-.051-.313-.08-.287-.051-.313-.053-.313-.025-.287-.027-.313-.025-.287-.025-.287v-.547l.025-.261.025-.235.027-.235.051-.209.027-.183.051-.183.08-.156.051-.131.078-.131.08-.078.078-.052.1-.053.078-.026.131-.026.131-.078.156-.052.34-.183.365-.183.209-.1.209-.078.234-.079.236-.1.234-.052.236-.079.234-.026.234-.052h.5l.234.026.262.052.236.079.234.1.234.157.209.183.209.209.209.261.209.288.184.339.182.392.184.418.131.5.131.522.156.549.1.5.131.47.131.444.1.392.131.366.105.339.131.313.129.287.105.235.131.235.1.209.131.182.131.184.131.131.131.156.156.105.131.1.156.105.131.1.156.053.184.078.156.078.209.053.365.1.418.131.471.131.5.184.26.078.236.131.234.1.234.131.209.156.209.156.184.158.209.182.156.184.156.182.158.209.156.209.131.236.1.209.105.234.1.262.105.234.078.287.051.262.053.26.053.287.053.289v.287l.025.287v.626l-.025.312-.027.314-.025.312-.053.34-.053.34-.078.338-.078.34-.053.393-.078.418-.051.443-.053.443-.025.471-.027.5-.025.5v.471l-.027.469.027.471.025.443.027.445.051.418.053.391.078.34.105.287.1.287.105.209.156.156.156.105.184.051.207-.025.209-.1.236-.158.262-.26.26-.34.314-.418.338-.549.34-.627.393-.73.391-.836.393-.889.391-.861.34-.809.34-.783.6-1.463.521-1.332.5-1.227.471-1.1.234-.521.234-.471.209-.471.236-.418.234-.418.234-.391.262-.365.234-.34.262-.314.287-.287.314-.287.312-.261.34-.235.34-.208.391-.209.393-.183L128,95.4l.471-.157.471-.13.521-.131.549-.078.521-.079h.992l.471.026.469.052.445.1.443.105.418.13.418.183.393.157.391.209.365.183.365.235.367.209.338.262.314.234.34.262.312.234.314.262.6.521.549.5.287.236.262.207.26.209.262.209.234.209.262.158.236.156.234.1.234.131.262.078.287.053.262.053.287.025h.574l.312-.053.314-.025.312-.078.314-.053.312-.1.314-.105.312-.1.34-.105.312-.131.314-.156.312-.131.287-.156.314-.156.287-.156.287-.158.26-.182.289-.156.234-.184.262-.156.234-.184.209-.156.209-.156.182-.158.158-.182.156-.131.182-.156.158-.131.209-.131.234-.131.262-.131.26-.1.287-.131.314-.1.287-.105.34-.1.34-.079.338-.1.68-.157.705-.183.68-.131.678-.13.627-.131.574-.1.523-.131.418-.078.182-.052.158-.052.1-.026.1-.052.078-.131.051-.261.08-.392.025-.548.053-.627.051-.757v-.862l.027-.914.051-2.115V83.153l-.025-2.56-.025-2.533-.027-2.455-.025-2.3L158.52,71.3l-.025-1.723-.025-1.306V67.222l.025.026h.156l.1-.026.129-.026.158-.052.156-.052.182-.079.393-.156.393-.183.365-.157.34-.131.234.026.262.052.26.026.262.026.234.026.209.026.209.026h.262l.156-.052.078-.026h.209l.078.052.053.026.078.053.053.052.053.053.051.052.053.079.053.1.053.105.1.261.131.287.1.392.1.444.053.366.078.6.053.836.051,1.018.053,1.228.053,1.384.051,1.541.053,1.7.078,3.734.078,4.074.08,4.335.078,4.413.051,4.388.053,4.256.025,3.943.027,3.551.025,2.979-.025,2.3v.861l-.027.654v.418l-.025.129-.287.289-.418.418-.469.469-.445.418-4.779.209-.809-5.8h-.053l-.156-.053-.1-.025h-.444l-.182.051-.184.078-.078.027-.1.053-.1.078-.1.051-.1.08-.1.078-.1.1-.131.105-.1.131-.1.129-.131.158-.1.156-.131.182-.131.184-.156.184-.184.207-.365.418-.443.445-.471.443-.471.443-.494.445-.5.418-.939.809-.783.627-.521.443-.209.158h-.08l-.26.025-.156-.025h-.184l-.209-.027-.234-.025-.236-.053-.234-.053-.262-.078-.26-.1-.1-.053-.131-.053-.131-.078-.1-.078-.1-.105-.1-.078-.1-.1-.1-.131-.078-.1-.1-.158-.078-.129-.1-.184-.078-.209-.1-.209-.078-.209-.1-.234-.158-.5-.156-.523-.131-.549-.131-.547-.129-.549-.1-.521-.1-.523-.053-.471-.078-.443-.025-.365V111.8l.051-.5.078-.627.053-.783.078-.836.078-.914.1-.914.078-.887.1-.811.027-.312.051-.34.053-.312.053-.314.053-.312.078-.314.025-.312.027-.314h-.549l-.287.027-.287.025-.287.053-.289.051-.26.08-.287.1-.262.078-.287.105-.262.131-.26.129-.262.131-.281.156-.262.156-.262.156-.1.1-.131.158-.078.182-.078.209-.053.262-.078.262-.025.312-.053.314-.053.73-.053.783-.025.861-.025.889-.027.443-.051.443-.027.445-.053.469-.051.418-.078.445-.08.443-.078.418-.1.391-.131.367-.131.391-.184.34-.156.312-.209.314-.234.26-.234.236-.549.471-.523.443-.521.469-.549.445-.287.209-.287.209-.262.182-.287.209-.312.158-.315.184-.312.156-.312.131-.34.105-.314.1-.365.078-.34.053-.365.053-.365.025h-.393l-.418-.053-.391-.051-.443-.105-.418-.1-.471-.158-.443-.156-.5-.234-.5-.234-.5-.287-.523-.289-.443-.312-.443-.314-.418-.287-.367-.287-.365-.312-.312-.262-.314-.287-.547-.5-.471-.471-.209-.209-.209-.182-.184-.156-.182-.158-.184-.129-.182-.105-.184-.078-.156-.025-.184-.027h-.156l-.184.053-.182.053-.184.131-.209.129-.234.184-.209.234-.262.262-.26.287-.287.365-.289.393-.338.418-.314.365-.312.365-.34.34-.314.312-.312.289-.34.234-.34.234-.338.209-.314.184-.34.182-.312.131-.34.105-.312.078-.314.051-.312.027-.314.025-.312-.025-.314-.053-.287-.078-.287-.078-.287-.131-.262-.156-.26-.184-.287-.182-.236-.236-.234-.26-.234-.287-.236-.289-.209-.338-.182-.367-.184-.391-.182-.418-.131-.443-.131-.523-.105-.521-.078-.549-.078-.6-.025-.6-.027-.627-.025-.652v-1.306l.025-.678.027-.68.025-.68.053-.678.053-.652.1-1.307.131-1.227.105-1.15.1-1.018.025-.443.027-.393.025-.391.025-.314v-.262l-.025-.209V99.58l-.053-.105-.051-.051-.078-.053-.053-.053-.105-.053-.078-.051-.078-.053-.1-.027-.105-.051-.234-.053-.236-.053-.26-.025h-.5l-.262.025-.234.027-.209.051-.105.027-.078.051-.078.027-.078.025-.078.053-.053.053-.053.051-.053.053-.025.078-.025.105-.053.131-.053.182-.078.418-.1.523-.131.6-.131.68-.131.73-.131.783-.156.758-.184.809-.182.785-.184.756-.078.365-.1.34-.105.34-.1.34-.105.287-.1.287-.105.262-.131.234-.234.5-.287.574-.34.68-.34.705-.391.758-.393.783-.418.783-.418.783-.418.758-.416.705-.209.34-.209.312-.209.312-.184.289-.184.26-.182.236-.184.209-.156.209-.184.129-.156.131-.156.078-.131.053-.312.1-.393.131-.471.131-.547.131-.288.078-.287.053-.287.025-.313.027-.287.025h-.339l-.287-.025-.318-.051-.313-.053-.288-.1-.287-.105-.287-.156-.261-.156-.261-.209-.235-.262-.209-.287-.209-.312-.183-.367-.157-.418-.13-.443-.105-.521-.078-.549-.052-.6-.026-.652.026-1.357v-1.254l.026-1.2.026-1.123.026-1.018.026-.992.026-.889v-.809l.026-.758v-1.854l-.026-.5-.026-.418-.026-.184-.026-.156-.026-.158-.052-.129-.052-.287-.1-.287-.1-.287-.157-.289L91,100.129,90.9,100l-.078-.131-.079-.105-.1-.1-.079-.105-.1-.1-.1-.078-.1-.053-.1-.053-.1-.025-.13-.025h-.1l-.131.025-.13.025-.13.078-.131.08-.131.129-.13.131-.157.156-.13.184-.157.234-.13.262-.157.262-.157.34-.157.365-.157.443-.157.471-.339,1.045-.366,1.2-.392,1.279-.418,1.383-.235.705-.235.705-.235.705-.261.705-.287.732-.261.705-.287.678-.313.68-.339.652-.313.654-.366.6-.365.574-.366.549-.417.521-.418.471-.418.443-.47.367-.47.338-.5.289-.5.207-.5.158-.47.078H77.68l-.392-.078-.366-.105-.339-.209-.313-.209-.287-.287-.261-.312-.235-.34-.209-.393-.209-.418-.183-.416-.157-.445-.157-.471-.131-.443-.13-.469-.105-.471-.1-.443L74,112.87l-.1-.418-.079-.391-.1-.365-.1-.34-.078-.287-.105-.262-.1-.184-.1-.156-.13-.1-.131-.027-.131.053-.156.105-.313.312-.313.312-.287.314-.235.312-.235.314-.235.312-.183.287-.183.287-.313.523-.262.471-.209.391-.156.262-.1.156-.183.184-.209.26-.313.287-.313.314-.392.34-.418.338-.418.367-.444.338-.444.34-.444.314-.444.287-.209.131-.209.1-.209.105-.183.1-.183.078-.183.053-.157.053-.157.025H63.97l-.183-.025-.157-.027-.183-.078-.209-.1-.183-.105-.208-.156-.209-.156-.183-.184-.209-.182-.208-.236-.209-.234-.183-.262-.208-.262-.183-.312-.183-.287-.157-.34-.157-.34-.157-.34-.13-.365-.1-.365-.1-.391-.078-.418-.053-.418-.052-.418-.026-.418V111.9l.052-.471.052-.443.078-.445.1-.469.131-.5.339-.914.287-.863.288-.809.287-.758.261-.705.235-.652.235-.574.209-.523.209-.443.156-.418.157-.34.1-.287.1-.209.078-.156.052-.1.026-.027.026-.131.052-.365.052-.234.026-.287v-.287l-.026-.156-.026-.158-.026-.131-.026-.156-.05-.13-.052-.156-.079-.131-.078-.131-.1-.129-.131-.131-.13-.105L62.8,98.9l-.183-.1-.183-.078-.209-.053-.235-.027-.235-.025-.261-.025h-.575l-.575.025-.574.025-.549.053-.548.053-.522.025-.522.078-.47.053-.836.105-.653.1-.418.053-.156.025-.209,4.805L54.7,130.186l-1.41,1.2-3.6.6L47.675,130.6,47.283,100l-9.583.391-.209,2.012.209,26.191v.314l.026.312v.287l-.026.287v.262l-.026.234-.052.236-.052.209-.052.182-.079.184-.026.078-.052.053-.052.078-.053.053-.052.051-.052.053-.079.025-.078.027-.052.053h-.079l-.078.025h-.1l-6.79.391h-.183l-.183-.025-.157-.025-.157-.053-.157-.053-.13-.078-.1-.1-.1-.1-.078-.1-.1-.131-.053-.156-.078-.184-.052-.156-.026-.184-.026-.209v-.234l-.208-28.777L8.506,103.784v-3.6L28.483,98.2V64.8l.1-7.6.053-.287.052-.288.026-.156.052-.131.026-.13.052-.131.052-.13.079-.1.078-.131.052-.1.079-.1.1-.1.1-.1.1-.1h7.285v0Zm120.308,45.361-.131.025-.156.078-.156.078-.158.131-.182.156-.209.156-.184.209-.209.209-.209.236-.209.26-.209.262-.234.287-.209.287-.234.314-.236.312-.234.34-.443.705-.445.705L152.6,106l-.391.73-.184.34-.209.365-.156.34-.158.34-.156.312-.131.314-.129.312-.1.314-.1.287-.1.262-.078.287-.078.287-.078.287-.053.287-.053.287-.078.287-.051.521-.08.523-.025.234v.234l-.025.236v.443l.025.184v.209l.025.156.027.182.025.131.027.131.051.131.053.1.053.078.053.08.051.051.078.053h.131l.078-.025.078-.053.1-.053.1-.053.131-.078.262-.209.287-.234.312-.262.314-.312.34-.312.365-.367.34-.365.312-.365.314-.365.287-.393.131-.182.129-.184.1-.156.1-.184.1-.182.078-.158.078-.156.053-.156.26-.73.34-.941.393-1.045.418-1.1.391-1.02.314-.887.131-.365.1-.314.078-.209.027-.131.051-.287.078-.443.027-.262.053-.287.025-.287.025-.312v-.287l-.025-.287-.025-.131-.027-.105-.025-.1-.053-.105-.053-.1-.051-.078-.08-.053-.078-.078-.078-.025-.1-.027h-.078l-.132.03Zm-28.8,3.289-.025.184-.053.312-.025.445-.027.521-.025.627-.025.705-.027.73v2.3l.053.705.025.652.053.312.025.289.027.234.053.262.051.182.053.184.053.131.078.129.312.445.471.627.131.156.131.184.156.156.156.156.156.156.184.156.184.158.209.129.209.131.209.131.234.078.262.078.234.078.262.027.287.025h.287l.287-.025.312-.053.34-.078.34-.105.34-.156.365-.156.389-.207.393-.262.365-.287.365-.26.314-.262.287-.262.262-.262.234-.26.209-.287.182-.262.158-.262.131-.234.1-.262.1-.234.08-.262.051-.234.027-.234.025-.236.025-.234v-.418l-.025-.209-.025-.393-.078-.391-.08-.314-.051-.312-.078-.262-.027-.234v-.209l.027-.184v-.182l.025-.184.025-.182.027-.158v-.156l-.027-.131-.025-.078-.025-.078-.027-.053-.025-.051-.053-.078-.053-.053-.051-.053-.078-.053-.08-.051-.1-.053-.1-.027-.1-.051-.156-.053-.131-.025-.156-.027-.184-.053-.391-.051-.445-.078-.469-.105-.5-.1-1.02-.262-1.045-.262-.992-.26-.861-.236-.652-.156-.418-.131-.262-.078-.234-.053-.262-.078-.209-.025-.1-.027h-.1l-.1.027-.078.025-.08.027-.051.051-.053.053-.052.081Zm4.467-5.822-.131.051-.158.027-.1.051-.131.08-.131.078-.078.078-.1.1-.1.105-.051.1-.08.131-.078.131-.025.131-.053.131-.025.129-.027.158v.468l.027.131.053.156.025.158.053.156.078.156.078.156.1.131.1.156.1.131.131.131.131.1.156.131.184.105.182.1.367.209.365.158.34.182.338.131.314.131.312.131.287.078.289.078.1.025h.131l.131.027h.313l.131-.027h.078l.1-.051.078-.027.078-.053.078-.051.078-.078.078-.078.053-.08.053-.078.051-.1.053-.105.025-.131.027-.129.078-.262.053-.262.025-.156V100.6l-.025-.156-.027-.131-.025-.156-.053-.131-.025-.156-.053-.131-.078-.131-.078-.131-.078-.131-.078-.129-.1-.105-.1-.1-.131-.078-.1-.105-.156-.078-.156-.053-.156-.078-.158-.053-.338-.051-.287-.078-.209-.08-.209-.078-.314-.131-.234-.1-.1-.025-.1-.027-.131-.025h-.5l-.234.025-.291.027Zm47.187-5.772-.131.026h-.182l-.209.052-.262.079-.287.078-.314.079-.365.13-.365.13-.393.131-.443.156-.443.209-.471.183-.469.208-.5.235-.5.261-.5.235-.521.287-.5.313-.523.287-.5.34-.5.339-.5.365-.5.365-.443.393-.471.391-.418.418-.418.445-.365.443-.338.471-.34.469-.287.5-.262.5-.209.523-.184.5-.131.521-.1.5-.053.5-.025.471v.5l.053.471.078.443.1.471.131.443.156.443.184.418.209.418.262.393.26.391.287.393.287.365.314.34.34.34.365.34.365.287.393.287.391.287.418.26.418.236.418.234.443.184.418.182.445.158.443.156.443.1.234.053.209.078.236.078.209.053.209.1.209.078.182.08.209.1.184.1.209.105.182.1.156.131.184.105.156.131.158.131.182.129.131.131.156.131.131.156.131.131.131.156.1.131.1.156.1.184.1.156.078.156.078.158.078.156.053.156.053.184.025.156.053.184.025.156v.182l.025.184v.34l-.025.182-.025.158-.027.182-.025.158-.053.182-.078.156-.078.184-.078.156-.078.184-.1.156-.131.156-.129.184-.131.156-.184.156-.156.156-.184.184-.209.131-.209.182-.234.158-.234.156-.262.131-.287.156-.287.156-.314.131-.312.156-.365.131-.365.131-.732.287-.73.287-.705.287-.705.314-.34.156-.312.156-.314.131-.312.184-.314.156-.26.156-.289.184-.287.156-.26.182-.236.184-.234.182-.234.184-.209.184-.184.182-.182.209-.158.184-.156.184-.131.207-.1.209-.1.209-.078.209-.078.209-.053.209v.236l-.025.156v.209l.025.182v.209l.027.209.025.209.053.209.051.236.053.209.053.209.078.234.1.209.1.209.078.209.131.182.1.209.129.184.158.156.156.156.131.158.182.129.184.1.182.1.209.078.209.053.209.027.236.025.234-.025.234-.027.287-.078.262-.078.287-.131.6-.287.574-.287.549-.287.547-.314.523-.287.5-.287.469-.312.471-.287.471-.287.418-.314.418-.287.418-.287.73-.549.705-.549.6-.5.574-.469.5-.418.469-.365.367-.314.338-.234.158-.105.156-.078.1-.051.131-.053.1-.053.1-.1.131-.158.131-.182.131-.262.131-.262.129-.312.1-.34.131-.365.131-.393.1-.418.1-.443.1-.443.1-.471.078-.5.051-.471.053-.494.053-.5.025-.5v-.965l-.025-.471-.053-.471-.053-.443-.1-.418-.1-.391-.156-.393-.156-.365-.209-.314-.209-.287-.262-.26-.287-.209-.627-.393-.627-.365-.625-.365-.654-.365-.652-.34-.652-.34-.652-.34-.627-.312-.627-.34-.574-.287-.576-.314-.521-.287-.471-.26-.443-.289-.209-.1-.182-.131-.184-.131-.156-.131-.158-.1-.129-.156-.1-.131-.078-.156-.053-.158-.051-.182v-.549l.051-.184.053-.209.053-.209.1-.207.1-.209.131-.236.129-.209.158-.234.156-.209.184-.234.182-.236.209-.234.234-.234.236-.236.234-.234.262-.234.26-.236.289-.234.287-.209.287-.234.312-.209.314-.236.338-.209.314-.182.312-.184.287-.156.287-.1.287-.105.262-.1.262-.08.234-.051.471-.078.418-.08.418-.051.391-.053.184-.053.184-.025.182-.053.184-.078.182-.078.184-.105.156-.129.184-.131.182-.156.184-.184.182-.234.184-.236.209-.26.184-.34.209-.34.209-.365.182-.393.156-.365.1-.366.1-.313.027-.313.025-.261-.025-.261-.027-.261-.078-.209-.1-.209-.1-.209-.131-.156-.156-.157-.182-.157-.184-.13-.184-.105-.209-.1-.209-.1-.209-.079-.234-.078-.209-.052-.234-.052-.209-.052-.234-.026-.418-.053-.367-.026-.338-.026h-.276v-.007Z" fill-rule="evenodd"/>
</svg>
