<svg width="42" height="43" viewBox="0 0 42 43" fill="none" xmlns="http://www.w3.org/2000/svg">
<path d="M12.1356 27.8734C12.2343 26.9513 12.2837 26.4903 12.4109 26.1437C12.7919 25.105 13.6263 24.4091 14.7165 24.2207C15.0803 24.1578 15.5706 24.1941 16.5511 24.2665C17.8981 24.3661 19.4015 24.4463 20.7497 24.4463C22.158 24.4463 23.7159 24.3588 25.0836 24.2531C26.0153 24.1811 26.4812 24.1451 26.8327 24.2015C27.869 24.3678 28.6765 24.9903 29.101 25.9502C29.245 26.2757 29.3238 26.7083 29.4815 27.5736V27.5736C29.6706 28.6119 29.7652 29.131 29.722 29.5543C29.5979 30.7715 28.747 31.7914 27.5718 32.1317C27.163 32.25 26.6354 32.25 25.58 32.25L20.7497 32.25H16.0685C15.0909 32.25 14.6022 32.25 14.2134 32.1436C13.0796 31.8334 12.2315 30.8896 12.0438 29.7292C11.9794 29.3313 12.0315 28.8453 12.1356 27.8734V27.8734Z" stroke="#F0F4F8" stroke-width="1.4"/>
<path d="M16.3335 14.75C16.3335 12.5409 18.1244 10.75 20.3335 10.75H21.6668C23.876 10.75 25.6668 12.5409 25.6668 14.75V16.3056C25.6668 18.5147 23.876 20.3056 21.6668 20.3056V20.3056H20.3335V20.3056C18.1244 20.3056 16.3335 18.5147 16.3335 16.3056V14.75Z" stroke="#F0F4F8" stroke-width="1.4"/>
</svg>
