<svg id="phas" xmlns="http://www.w3.org/2000/svg" width="192.756" height="192.756" viewBox="0 0 192.756 192.756">
  <path id="Контур_6" data-name="Контур 6" d="M0,0H192.756V192.756H0Z" fill="#fff" fill-rule="evenodd"/>
  <path id="Контур_7" data-name="Контур 7" d="M48.886,76.866H9.864v39.023H48.886Zm46.028-1.358v41.74H53.173V75.508Zm-1.359,1.358H54.533v39.023H93.555Zm46.029-1.358v41.74H97.844V75.508Zm-1.361,1.358H99.2v39.023h39.021V76.866Zm46.029-1.358v41.74H142.514V75.508ZM182.9,76.866H143.872v39.023H182.9ZM16.466,112.6h3.907v-12.4h7.339c3.644,0,7.128-.249,10.138-2a8.112,8.112,0,0,0,4.435-7.115c0-3.079-1.742-5.908-5.122-7.573-3.168-1.581-6.812-1.622-10.455-1.664H16.466Zm3.908-15.188V84.633H25.39c2.693,0,5.543-.208,8.131.666,3.062,1,4.857,3.079,4.857,5.742a5.806,5.806,0,0,1-3.433,5.118c-2.375,1.164-5.121,1.248-7.866,1.248h-6.7ZM60.692,112.6h3.722V98.156H83.673v14.438H87.4V81.846H83.673V95.369H64.414V81.846H60.692Zm41.937,0h3.584l4.795-10.319H126.42l4.795,10.319H134.8L120.6,81.846h-3.674L102.629,112.6Zm9.678-13.108,6.451-14.1,6.363,14.1H112.307Zm37.263,4.494c-.061,5.368,6.268,9.153,13.934,9.153,7.3,0,13.691-3.911,13.691-8.986,0-2.455-1.521-4.868-4.2-6.45-2.617-1.622-5.418-2-8.641-2.621-4.383-.832-8.885-1.706-8.885-5.409,0-2.912,3.346-5.367,7.729-5.367,4.623,0,7.908,2.247,8.213,5.367H176.1c.061-4.7-5.535-8.321-12.354-8.321-7.055,0-12.777,3.329-12.777,8.28,0,2.2,1.279,4.286,3.773,5.742,2.252,1.33,5.111,1.83,7.91,2.329a21.53,21.53,0,0,1,6.938,2.039,5.367,5.367,0,0,1,3.1,4.369c0,3.537-4.2,6.074-9.309,6.074-5.051,0-8.883-2.828-9-6.2H149.57ZM50.245,75.508v41.74H8.5V75.508H50.245Z" fill-rule="evenodd"/>
</svg>
