<svg width="24" height="24" viewBox="0 0 24 24" fill="none" xmlns="http://www.w3.org/2000/svg">
<path d="M2 11.5C2 11.0357 2 10.8036 2.00857 10.6074C2.21212 5.94532 5.94532 2.21212 10.6074 2.00857C10.8036 2 11.0357 2 11.5 2C11.9643 2 12.1964 2 12.3926 2.00857C17.0547 2.21212 20.7879 5.94532 20.9914 10.6074C21 10.8036 21 11.0357 21 11.5C21 11.9643 21 12.1964 20.9914 12.3926C20.7879 17.0547 17.0547 20.7879 12.3926 20.9914C12.1964 21 11.9643 21 11.5 21C11.0357 21 10.8036 21 10.6074 20.9914C5.94532 20.7879 2.21212 17.0547 2.00857 12.3926C2 12.1964 2 11.9643 2 11.5Z" fill="#F0F4F8"/>
<path fill-rule="evenodd" clip-rule="evenodd" d="M18.5014 19.0035C18.7754 18.7308 19.2186 18.7319 19.4913 19.006L21.5269 21.0516C21.7996 21.3256 21.7985 21.7688 21.5244 22.0415C21.2504 22.3142 20.8072 22.3131 20.5345 22.0391L18.4989 19.9935C18.2262 19.7194 18.2273 19.2762 18.5014 19.0035Z" fill="#F0F4F8"/>
</svg>
