<svg id="uniglobe" xmlns="http://www.w3.org/2000/svg" width="192.756" height="192.756" viewBox="0 0 192.756 192.756">
  <path id="Контур_8" data-name="Контур 8" d="M0,0H192.756V192.756H0Z" fill="#fff" fill-rule="evenodd"/>
  <path id="Контур_9" data-name="Контур 9" d="M8.5,109.533v1.387H90.64l-.312-1.387Zm172.682,0H98.395l.3,1.387h82.493v-1.387Z" fill="#929496" fill-rule="evenodd"/>
  <path id="Контур_10" data-name="Контур 10" d="M136.844,101.717l-4.51-18.861c-.584-2.8-2.225-3.316-4.2-3.287h-4.01l-4.039,7.183V79.569H112.5v20.55h-7.881V79.569H96.888v23.445l-2.2-9.783c-.613-2.8-2.195-3.287-4.143-3.287H83.371l-3.3,5.865V86.951H92.15l4.141-7.382H76.15c-2.236,0-4.2,1.267-4.053,4.2v19.771a3.719,3.719,0,0,0,3.966,3.965h8.9l3.485-6.289,1.876,8.32.312,1.387.512,2.27h8.032l-.49-2.27-.3-1.387-.76-3.525a3.772,3.772,0,0,0,3.451,1.494h7.525l3.891-6.982v3.018a3.73,3.73,0,0,0,3.965,3.965h16.586c4.591,0,4.241-3.792,3.792-5.786Zm29.537,5.785c-3.133.1-4.211-1.961-4.2-4.2V83.766c-.174-2.583,1.527-4.255,4.2-4.2H180.74v7.382H169.765v9.428l3.891-6.435h7.084v7.382H169.765v2.793h12.221l-4.439,7.383H166.381ZM44.862,86.951H49.6L54.339,107.5H62.22L56.584,82.711a3.539,3.539,0,0,0-3.941-3.143H48.4l-3.561,6.273.02-6.273H37.28v20.55H30.1V79.568H22.116v23.968a3.748,3.748,0,0,0,4.2,3.965H44.862V86.951Z" fill-rule="evenodd"/>
  <path id="Контур_11" data-name="Контур 11" d="M88.157,100.131l-.646-2.805H80.069v2.805h8.088Z" fill="#fff" fill-rule="evenodd"/>
  <path id="Контур_12" data-name="Контур 12" d="M160.188,90.368a3.686,3.686,0,0,1-1.275,3.042,3.426,3.426,0,0,1,1.275,2.895v7a3.8,3.8,0,0,1-4.2,4.2H138.042V79.569h7.582v6.085l3.635-6.085h6.734a3.829,3.829,0,0,1,4.2,4.2v6.6Zm22.236,13.366a1.829,1.829,0,1,1-1.83,1.828A1.825,1.825,0,0,1,182.424,103.734ZM70.1,107.5V79.569H62.52V107.5Z" fill-rule="evenodd"/>
  <path id="Контур_13" data-name="Контур 13" d="M120.084,100.119h8.379L125.32,86.951h-5.236Zm32.672-10.175V86.951h-7.133v2.993Zm0,10.175V97.127h-7.133v2.992Zm29.672,3.777a1.623,1.623,0,0,0-1.648,1.666,1.644,1.644,0,1,0,3.287,0A1.621,1.621,0,0,0,182.428,103.9Z" fill="#fff" fill-rule="evenodd"/>
  <path id="Контур_14" data-name="Контур 14" d="M181.943,105.646h.562l.65,1h.205l-.645-.994a.571.571,0,0,0,.557-.572c0-.391-.215-.6-.7-.6h-.812v2.162h.186Z" fill-rule="evenodd"/>
  <path id="Контур_15" data-name="Контур 15" d="M181.943,104.645h.6c.258,0,.547.1.547.43,0,.377-.357.41-.684.41h-.461v-.84Z" fill="#fff" fill-rule="evenodd"/>
</svg>
