<svg id="willson" xmlns="http://www.w3.org/2000/svg" width="192.756" height="192.756" viewBox="0 0 192.756 192.756">
  <path id="Контур_16" data-name="Контур 16" d="M0,0H192.756V192.756H0Z" fill="#fff" fill-rule="evenodd"/>
  <path id="Контур_17" data-name="Контур 17" d="M46.856,73.9h8.638v34.034H46.856Zm11.575,0h8.638V99.818H78.99l-2.419,8.12H58.431Zm22.286,0h8.638V99.818h11.92l-2.42,8.12H80.717ZM8.5,73.9l6.219,34.034h6.22l6.046-14.857,6.392,14.857h6.047L43.574,73.9H35.282l-1.9,15.2-6.91-15.2L19.733,90.317,16.8,73.9H8.5Zm142.18,0v34.034h8.638V92.39l13.992,15.548h3.8V73.9h-8.636V89.971L153.967,73.9Zm-19.176-.66a17.59,17.59,0,1,0,17.59,17.59A17.592,17.592,0,0,0,131.508,73.244Zm0,8.063a9.528,9.528,0,1,1-9.529,9.528A9.527,9.527,0,0,1,131.508,81.307Z" fill-rule="evenodd"/>
  <path id="Контур_18" data-name="Контур 18" d="M113.195,82.542v-7.6a12.252,12.252,0,0,0-6.047-1.295c-1.814,0-6.219.518-8.637,3.714s-1.729,9.329.344,13.043l8.725,16.412c1.209,2.332.086,4.578-2.938,4.578h-89.4l1.468,8.119h91.13a10.082,10.082,0,0,0,8.639-4.75c.6-1.209,2.85-6.479-.088-11.4l-9.5-16.757c-1.467-2.937-.172-4.492.605-4.837a5.024,5.024,0,0,1,5.7.777Zm68.127-6.759h.758c.328,0,.7.124.7.546,0,.478-.453.521-.869.521h-.584v.205h.715l.824,1.266h.262l-.82-1.26a.727.727,0,0,0,.709-.726c0-.5-.273-.757-.9-.757h-1.029v2.743h.234V75.783Z" fill-rule="evenodd"/>
  <path id="Контур_19" data-name="Контур 19" d="M181.932,74.628a2.315,2.315,0,1,1-1.642.678,2.317,2.317,0,0,1,1.642-.678l.006.2a2.06,2.06,0,0,0-2.092,2.116,2.085,2.085,0,1,0,4.17-.007,2.054,2.054,0,0,0-2.078-2.109l-.006-.205Zm-60.221,39.378a.826.826,0,0,0-.939-.775c-.424,0-.848.154-.848.646,0,.469.6.537,1.215.676s1.211.35,1.211,1.094c0,.807-.791,1.129-1.482,1.129-.85,0-1.564-.414-1.564-1.336h.477c0,.637.531.912,1.105.912.455,0,.961-.143.961-.689,0-.521-.605-.611-1.211-.744s-1.217-.309-1.217-1c0-.77.686-1.109,1.375-1.109a1.221,1.221,0,0,1,1.4,1.2h-.479Zm3.863,1.539.414,1.141h.559l-1.483-3.791h-.556l-1.481,3.791h.52l.426-1.141.158-.426.642-1.767h.01l.633,1.767h-1.285l-.158.426h1.6Zm1.862-2.65h2.49v.425h-1.985v1.205h1.741v.424h-1.741v1.737h-.5V112.9Zm3.394,0h2.617v.425h-2.113v1.205H133.3v.424h-1.969v1.313h2.129v.424H130.83V112.9Zm5.225.425h-1.264v-.425h3.031v.425h-1.261v3.366h-.506Zm4.013,1.815v1.551h-.506v-1.551L138.1,112.9h.6l1.137,1.806,1.109-1.806h.575l-1.45,2.24Zm5.307-1.815h.986c.568,0,.83.244.83.695s-.262.7-.83.695h-.986v.424h1.158a1.121,1.121,0,1,0,0-2.24h-1.662v3.791h.5Zm4.084-.068h1.252a.6.6,0,0,1,.674.648c0,.553-.4.674-.875.674h-1.051V115h1.23c.488,0,.58.312.633.684.074.373-.006.781.137.936h.562a1.974,1.974,0,0,1-.223-1.047c-.037-.371-.127-.695-.566-.779v-.012a.909.909,0,0,0,.656-.961c0-.605-.439-.992-1.15-.992h-1.785v3.791h.506v-3.368Zm5.4-.022c.924,0,1.311.8,1.311,1.561s-.387,1.561-1.311,1.561-1.312-.8-1.312-1.561.389-1.561,1.312-1.561V112.8a1.993,1.993,0,1,0,1.814,1.986,1.821,1.821,0,0,0-1.814-1.986Zm2.948-.335h1.3a1.615,1.615,0,0,1,1.822,1.807c0,1.268-.559,1.984-1.822,1.984h-1.3l.506-.424h.838c.346,0,1.273-.1,1.273-1.492,0-.9-.334-1.449-1.264-1.449h-.848v2.941l-.506.424V112.9h0Zm7.541,2.421a1.332,1.332,0,0,1-1.492,1.459c-.977,0-1.555-.451-1.555-1.459v-2.422h.5v2.422a.944.944,0,0,0,1.051,1.035.911.911,0,0,0,.988-1.035v-2.422h.5Zm4.164-1.279a1,1,0,0,0-1.062-.807c-.9,0-1.285.742-1.285,1.533,0,.865.383,1.588,1.291,1.588a1.074,1.074,0,0,0,1.094-1.094h.5a1.544,1.544,0,0,1-1.641,1.518,1.74,1.74,0,0,1-1.752-1.975,1.8,1.8,0,0,1,1.795-2,1.453,1.453,0,0,1,1.561,1.232h-.505Zm2.373-.717h-1.264v-.425h3.031v.425h-1.263v3.366h-.5Zm4.81.686a.827.827,0,0,0-.939-.775c-.424,0-.85.154-.85.646,0,.469.6.537,1.217.676s1.211.35,1.211,1.094c0,.807-.793,1.129-1.482,1.129-.85,0-1.566-.414-1.566-1.336h.479c0,.637.531.912,1.1.912.457,0,.961-.143.961-.689,0-.521-.6-.611-1.209-.744s-1.217-.309-1.217-1c0-.77.686-1.109,1.375-1.109a1.221,1.221,0,0,1,1.4,1.2h-.48Z" fill-rule="evenodd"/>
</svg>
